<svg width="0" height="0" class="hidden">
  <symbol xmlns="http://www.w3.org/2000/svg" viewBox="0 0 329.26933 329" id="close_menu">
    <path d="m194.800781 164.769531 128.210938-128.214843c8.34375-8.339844 8.34375-21.824219 0-30.164063-8.339844-8.339844-21.824219-8.339844-30.164063 0l-128.214844 128.214844-128.210937-128.214844c-8.34375-8.339844-21.824219-8.339844-30.164063 0-8.34375 8.339844-8.34375 21.824219 0 30.164063l128.210938 128.214843-128.210938 128.214844c-8.34375 8.339844-8.34375 21.824219 0 30.164063 4.15625 4.160156 9.621094 6.25 15.082032 6.25 5.460937 0 10.921875-2.089844 15.082031-6.25l128.210937-128.214844 128.214844 128.214844c4.160156 4.160156 9.621094 6.25 15.082032 6.25 5.460937 0 10.921874-2.089844 15.082031-6.25 8.34375-8.339844 8.34375-21.824219 0-30.164063zm0 0"></path>
  </symbol>
  <symbol id="horizontal_arrow" enable-background="new 0 0 512 512" xmlns="http://www.w3.org/2000/svg" viewBox="0 0 512 512">
    <g id="Layer_2_00000103972821825980288310000012755641873027120305_">
      <g id="Layer_2_copy_13">
        <g id="_113">
          <path d="m479 0h-386.9c-18.2 0-33 14.8-33 33s14.8 33 33 33h307.1l-389.5 389.6c-12.9 12.9-12.9 33.8 0 46.7s33.8 12.9 46.7 0l389.5-389.6v307.1c0 18.2 14.8 33 33 33s33-14.8 33-33v-386.8c.1-18.2-14.7-33-32.9-33z"></path>
        </g>
      </g>
    </g>
  </symbol>
  <symbol version="1.1" id="icon" xmlns="http://www.w3.org/2000/svg" xmlns:xlink="http://www.w3.org/1999/xlink" x="0px" y="0px" xml:space="preserve" viewBox="0 0 451.847 451.847">
    <g>
      <path d="M225.923,354.706c-8.098,0-16.195-3.092-22.369-9.263L9.27,151.157c-12.359-12.359-12.359-32.397,0-44.751
		c12.354-12.354,32.388-12.354,44.748,0l171.905,171.915l171.906-171.909c12.359-12.354,32.391-12.354,44.744,0
		c12.365,12.354,12.365,32.392,0,44.751L248.292,345.449C242.115,351.621,234.018,354.706,225.923,354.706z"></path>
    </g>
    <g></g>
    <g></g>
    <g></g>
    <g></g>
    <g></g>
    <g></g>
    <g></g>
    <g></g>
    <g></g>
    <g></g>
    <g></g>
    <g></g>
    <g></g>
    <g></g>
    <g></g>
  </symbol>
  <symbol id="menu" enable-background="new 0 0 464.205 464.205" xmlns="http://www.w3.org/2000/svg" viewBox="0 0 464.205 464.205">
    <g>
      <g id="grip-solid-horizontal_1_">
        <path d="m435.192 406.18h-406.179c-16.024 0-29.013-12.99-29.013-29.013s12.989-29.013 29.013-29.013h406.18c16.023 0 29.013 12.99 29.013 29.013-.001 16.023-12.99 29.013-29.014 29.013z"></path>
        <path d="m435.192 261.115h-406.179c-16.024 0-29.013-12.989-29.013-29.012s12.989-29.013 29.013-29.013h406.18c16.023 0 29.013 12.989 29.013 29.013s-12.99 29.012-29.014 29.012z"></path>
        <path d="m435.192 116.051h-406.179c-16.024 0-29.013-12.989-29.013-29.013s12.989-29.013 29.013-29.013h406.18c16.023 0 29.013 12.989 29.013 29.013s-12.99 29.013-29.014 29.013z"></path>
      </g>
    </g>
  </symbol>
</svg>